<svg xmlns="http://www.w3.org/2000/svg" xmlns:xlink="http://www.w3.org/1999/xlink" width="24" height="24" viewBox="0 0 24 24">
  <defs>
    <clipPath id="clip-path">
      <rect id="Rectangle_9347" data-name="Rectangle 9347" width="24" height="24" transform="translate(1683 163)" fill="#333" stroke="#333" stroke-width="1"/>
    </clipPath>
  </defs>
  <g id="Mask_Group_619" data-name="Mask Group 619" transform="translate(-1683 -163)" clip-path="url(#clip-path)">
    <g id="noun_Present_68090" transform="translate(1685.409 164.408)">
      <path id="Path_23687" data-name="Path 23687" d="M26.877,51.524H10.456A.456.456,0,0,1,10,51.068V39.208a.456.456,0,0,1,.456-.456H26.877a.457.457,0,0,1,.456.456v11.86A.457.457,0,0,1,26.877,51.524Zm-15.965-.912H26.421V39.664H10.912Z" transform="translate(-9.088 -30.198)" fill="#333" stroke="#333" stroke-width="0.5"/>
      <path id="Path_23688" data-name="Path 23688" d="M24.7,27.313H6.456A.456.456,0,0,1,6,26.857V23.208a.456.456,0,0,1,.456-.456H24.7a.457.457,0,0,1,.456.456v3.649A.457.457,0,0,1,24.7,27.313ZM6.912,26.4H24.246V23.664H6.912Z" transform="translate(-6 -17.847)" fill="#333" stroke="#333" stroke-width="0.5"/>
      <path id="Path_23689" data-name="Path 23689" d="M46.456,40.261A.456.456,0,0,1,46,39.8v-14.6a.456.456,0,1,1,.912,0V39.8A.456.456,0,0,1,46.456,40.261Z" transform="translate(-36.877 -19.391)" fill="#333" stroke="#333" stroke-width="0.5"/>
      <path id="Path_23690" data-name="Path 23690" d="M12.965,9.9A3.012,3.012,0,0,1,10,7.162c0-1.034.827-2.242,3.155-2.242,2.1,0,4.6,1.94,5.884,3.767a.456.456,0,0,1-.746.525c-1.17-1.661-3.412-3.38-5.139-3.38-1.4,0-2.242.5-2.242,1.33a2.113,2.113,0,0,0,2.053,1.825.457.457,0,0,1,0,.913Z" transform="translate(-9.088 -4.082)" fill="#333" stroke="#333" stroke-width="0.5"/>
      <path id="Path_23691" data-name="Path 23691" d="M52.157,9.9a.456.456,0,1,1,0-.912A2.113,2.113,0,0,0,54.21,7.165c0-.833-.838-1.33-2.242-1.33-1.728,0-3.969,1.719-5.139,3.38a.456.456,0,0,1-.746-.525c1.286-1.826,3.785-3.767,5.884-3.767,2.329,0,3.155,1.209,3.155,2.242A3.01,3.01,0,0,1,52.157,9.9Z" transform="translate(-36.876 -4.085)" fill="#333" stroke="#333" stroke-width="0.5"/>
      <path id="Path_23692" data-name="Path 23692" d="M38.48,6.113a.456.456,0,0,1-.456-.456c0-.829-1.171-2.58-2.223-3.632a.456.456,0,0,1,.645-.645c1.034,1.035,2.49,3.044,2.49,4.277A.455.455,0,0,1,38.48,6.113Z" transform="translate(-28.901 -1.247)" fill="#333" stroke="#333" stroke-width="0.5"/>
      <path id="Path_23693" data-name="Path 23693" d="M46.456,6.113A.456.456,0,0,1,46,5.657c0-1.232,1.456-3.242,2.49-4.277a.456.456,0,0,1,.645.645c-1.05,1.052-2.223,2.8-2.223,3.632A.455.455,0,0,1,46.456,6.113Z" transform="translate(-36.877 -1.247)" fill="#333" stroke="#333" stroke-width="0.5"/>
    </g>
  </g>
</svg>
