<svg xmlns="http://www.w3.org/2000/svg" xmlns:xlink="http://www.w3.org/1999/xlink" width="24" height="24" viewBox="0 0 24 24">
  <defs>
    <clipPath id="clip-path">
      <rect id="Rectangle_9348" data-name="Rectangle 9348" width="24" height="24" fill="#fff" stroke="#707070" stroke-width="1"/>
    </clipPath>
  </defs>
  <g id="Mask_Group_620" data-name="Mask Group 620" clip-path="url(#clip-path)">
    <g id="Group_87513" data-name="Group 87513" transform="translate(0.214 1.201)">
      <path id="Path_23694" data-name="Path 23694" d="M8.105,259.053a3.671,3.671,0,0,0-.944,1.012,3.483,3.483,0,0,0-.541,2,3.679,3.679,0,0,0,.335,1.4,3.574,3.574,0,0,0,5.038,1.6,3.487,3.487,0,0,0,1.491-1.668,3.581,3.581,0,0,0-2.589-4.95A3.46,3.46,0,0,0,9,258.586a.117.117,0,0,1-.137-.023,5.087,5.087,0,0,0-4.01-1.338A5.176,5.176,0,0,0,.5,260.262a5.041,5.041,0,0,0-.5,2.146.439.439,0,0,0,.282.457.409.409,0,0,0,.487-.137.566.566,0,0,0,.1-.286A4.358,4.358,0,0,1,2.6,259a4.312,4.312,0,0,1,3.462-.867,4.317,4.317,0,0,1,1.955.851c.026.02.052.041.087.07m-.619,2.921a2.713,2.713,0,1,1,2.723,2.7,2.723,2.723,0,0,1-2.723-2.7" transform="translate(9.769 -249.765)" fill="#333" stroke="#333" stroke-width="0.3"/>
      <path id="Path_23695" data-name="Path 23695" d="M180.424,3.242A3.253,3.253,0,1,0,183.728,0a3.25,3.25,0,0,0-3.3,3.242m.873.006a2.38,2.38,0,1,1,2.381,2.381A2.38,2.38,0,0,1,181.3,3.248" transform="translate(-168.59 -0.001)" fill="#333" stroke="#333" stroke-width="0.3"/>
      <path id="Path_23696" data-name="Path 23696" d="M265.446,493.353c-.25.338-.483.671-.734.991a7.906,7.906,0,0,1-1.485,1.444,5.44,5.44,0,0,1-1.226.7.726.726,0,0,1-.085.026.342.342,0,0,0-.254.358.318.318,0,0,0,.29.314,11.1,11.1,0,0,0,1.165,0,6.6,6.6,0,0,0,2.909-.915,5.94,5.94,0,0,0,1.665-1.486c.018-.023.038-.044.06-.071.223.131.442.26.662.388.067.039.139.069.206.107a.344.344,0,0,0,.485-.33c-.038-.573-.069-1.146-.1-1.719q-.051-.821-.1-1.641c-.013-.207-.024-.414-.04-.621a.35.35,0,0,0-.524-.32c-.456.2-.91.393-1.365.591l-2.352,1.023a.347.347,0,0,0-.15.562.481.481,0,0,0,.114.087c.279.167.56.332.869.516m2.742-1.957.177,2.868c-.194-.114-.361-.215-.531-.312a.349.349,0,0,0-.487.111,5.318,5.318,0,0,1-2.423,1.98,6.2,6.2,0,0,1-1.39.388c.2-.156.378-.295.551-.443a10.01,10.01,0,0,0,2.092-2.531.36.36,0,0,0-.144-.568l-.544-.323,2.7-1.17" transform="translate(-253.112 -474.844)" fill="#333" stroke="#333" stroke-width="0.3"/>
      <g id="Group_87512" data-name="Group 87512" transform="translate(0 5.798)">
        <path id="Path_23697" data-name="Path 23697" d="M521.6,173.326a3.25,3.25,0,1,0-3.259-3.255,3.251,3.251,0,0,0,3.259,3.255m-2.389-3.249a2.383,2.383,0,1,1,2.376,2.379,2.386,2.386,0,0,1-2.376-2.379" transform="translate(-516.27 -166.826)" fill="#333" stroke="#333" stroke-width="0.3"/>
        <path id="Path_23698" data-name="Path 23698" d="M446.927,429.12c0,.063,0,.126,0,.189a.433.433,0,0,0,.435.44.426.426,0,0,0,.434-.428,4.649,4.649,0,0,1,.209-1.289,4.445,4.445,0,0,1,7.179-2,4.372,4.372,0,0,1,1.376,2.26,6.5,6.5,0,0,1,.132,1,.443.443,0,0,0,.445.454.43.43,0,0,0,.425-.468,5.229,5.229,0,0,0-1.678-3.783,5.163,5.163,0,0,0-2.939-1.4,5.238,5.238,0,0,0-2.453.25,5.315,5.315,0,0,0-1.252.636,5.23,5.23,0,0,0-1.9,2.323,5.431,5.431,0,0,0-.417,1.81" transform="translate(-446.927 -416.617)" fill="#333" stroke="#333" stroke-width="0.3"/>
      </g>
      <path id="Path_23699" data-name="Path 23699" d="M50.3,349.531H51.61a.427.427,0,0,0,.464-.474.411.411,0,0,0-.393-.389l-1.288-.007c-.025,0-.05,0-.082,0,0-.033-.008-.061-.008-.089q0-.589,0-1.178a.435.435,0,1,0-.869-.009c0,.381,0,.763,0,1.145v.126c-.037,0-.066.009-.094.009-.407,0-.815,0-1.222,0a.437.437,0,0,0-.463.422.43.43,0,0,0,.448.448c.4,0,.808,0,1.211,0h.115c0,.043.005.075.005.108,0,.389,0,.778,0,1.167a.434.434,0,1,0,.868,0c0-.382,0-.763,0-1.145,0-.04,0-.079,0-.133" transform="translate(-29.898 -336.9)" fill="#333"/>
    </g>
  </g>
</svg>
